/* XPM */
static char * close_prelight_xpm[] = {
"12 13 18 1",
" 	c None",
".	c #D92E3A",
"+	c #F25056",
"@	c #D03C44",
"#	c #CA3742",
"$	c #B42A36",
"%	c #C93741",
"&	c #BC2E39",
"*	c #C1313D",
"=	c #B42A37",
"-	c #AD2633",
";	c #C0313C",
">	c #BB2F3B",
",	c #A72230",
"'	c #C83640",
")	c #BC303B",
"!	c #B52A37",
"~	c #C1323C",
"            ",
"   .......  ",
"  ..+++++.. ",
" ..+@+++#+..",
" .++$%+&*++.",
" .+++=-;+++.",
" .+++>,'+++.",
" .++);+!'++.",
" .++'+++~++.",
" ..+++++++..",
"  ..+++++.. ",
"   .......  ",
"            "};
