/* XPM */
static char * close_pressed_xpm[] = {
"12 13 19 1",
" 	c None",
".	c #D52835",
"+	c #D52734",
"@	c #D52735",
"#	c #CF2634",
"$	c #BF2331",
"%	c #D42735",
"&	c #BA2230",
"*	c #D42734",
"=	c #AD1F2E",
"-	c #B2202E",
";	c #B5212F",
">	c #AE1F2E",
",	c #A81F2D",
"'	c #B2212F",
")	c #A51E2D",
"!	c #B92230",
"~	c #CE2634",
"{	c #B6212F",
"            ",
"   .+@@@@.  ",
"  .@@@@@@@. ",
" .@#$@@%&%@.",
" .@*=&%-;@@%",
" .@@%>,;%@@.",
" @@@%')!@@@.",
" %@%';%>&@@+",
" .@~&@@%{%@.",
" .@@@@@@@@+.",
"  ..+@@@... ",
"   .......  ",
"            "};
