/* XPM */
static char * hide_active_xpm[] = {
"12 13 3 1",
" 	c None",
".	c #E6AC1D",
"+	c #FAC536",
"            ",
"   .......  ",
"  ..+++++.. ",
" ..+++++++..",
" .+++++++++.",
" .+++++++++.",
" .+++++++++.",
" .+++++++++.",
" .+++++++++.",
" ..+++++++..",
"  ..+++++.. ",
"   .......  ",
"            "};
