/* XPM */
static char * hide_prelight_xpm[] = {
"12 13 9 1",
" 	c None",
".	c #E6AC1D",
"+	c #FAC536",
"@	c #D49B29",
"#	c #D29A28",
"$	c #D8A02A",
"%	c #C88E24",
"&	c #C68B24",
"*	c #CB9326",
"            ",
"   .......  ",
"  ..+++++.. ",
" ..+++++++..",
" .+++++++++.",
" .+@#####$+.",
" .+%&&&&&*+.",
" .+++++++++.",
" .+++++++++.",
" ..+++++++..",
"  ..+++++.. ",
"   .......  ",
"            "};
