/* XPM */
static char * hide_pressed_xpm[] = {
"12 13 8 1",
" 	c None",
".	c #F9C436",
"+	c #D49B29",
"@	c #D29A28",
"#	c #D8A02A",
"$	c #C88E24",
"%	c #C68B24",
"&	c #CB9226",
"            ",
"   .......  ",
"  ......... ",
" ...........",
" ...........",
" ..+@@@@@#..",
" ..$%%%%%&..",
" ...........",
" ...........",
" ...........",
"  ......... ",
"   .......  ",
"            "};
