/* XPM */
static char * maximize_toggled_inactive_xpm[] = {
"12 13 24 1",
" 	c None",
".	c #B7B7B7",
"+	c #C3C3C3",
"@	c #CDCDCD",
"#	c #D0D0D0",
"$	c #CCCCCC",
"%	c #C2C2C2",
"&	c #BBBBBB",
"*	c #D4D4D4",
"=	c #CECECE",
"-	c #C8C8C8",
";	c #BFBFBF",
">	c #D3D3D3",
",	c #B8B8B8",
"'	c #C4C4C4",
")	c #C0C0C0",
"!	c #C5C5C5",
"~	c #CACACA",
"{	c #D2D2D2",
"]	c #CFCFCF",
"^	c #BABABA",
"/	c #C7C7C7",
"(	c #D1D1D1",
"_	c #C6C6C6",
"            ",
"   .+@#$%   ",
"  &#*****$  ",
"  =*******- ",
" ;********>,",
" '*********)",
" !*********)",
" )*********&",
"  #*******~ ",
"  &{*****], ",
"   ^/(*#_   ",
"            ",
"            "};
