/* XPM */
static char * maximize_prelight_xpm[] = {
"12 13 13 1",
" 	c None",
".	c #20D12E",
"+	c #39EA49",
"@	c #21AC27",
"#	c #179318",
"$	c #1DA220",
"%	c #158D15",
"&	c #0B7407",
"*	c #1EA421",
"=	c #1FA723",
"-	c #169117",
";	c #148C15",
">	c #27BD30",
"            ",
"   .......  ",
"  ..+++++.. ",
" ..++@##$+..",
" .++++%&&++.",
" .++*++%&++.",
" .++&*++%++.",
" .++&&=++++.",
" .++-;;>+++.",
" ..+++++++..",
"  ..+++++.. ",
"   .......  ",
"            "};
