/* XPM */
static char * maximize_pressed_xpm[] = {
"12 13 13 1",
" 	c None",
".	c #20D12E",
"+	c #119F15",
"@	c #0D880D",
"#	c #0E9210",
"$	c #0D840C",
"%	c #0B7407",
"&	c #1DC829",
"*	c #0F9310",
"=	c #0D850C",
"-	c #0E9411",
";	c #0D870C",
">	c #12AA19",
"            ",
"   .......  ",
"  ......... ",
" ....+@@#...",
" .....$%%...",
" ..&*..=%...",
" ..&%*..=...",
" ..&%%-.....",
" ...;$$>....",
" ...........",
"  ......... ",
"   .......  ",
"            "};
