<?xml version="1.0" encoding="UTF-8" standalone="no"?>
<!-- Created with Inkscape (http://www.inkscape.org/) -->

<svg
   xmlns:dc="http://purl.org/dc/elements/1.1/"
   xmlns:cc="http://creativecommons.org/ns#"
   xmlns:rdf="http://www.w3.org/1999/02/22-rdf-syntax-ns#"
   xmlns:svg="http://www.w3.org/2000/svg"
   xmlns="http://www.w3.org/2000/svg"
   xmlns:sodipodi="http://sodipodi.sourceforge.net/DTD/sodipodi-0.dtd"
   xmlns:inkscape="http://www.inkscape.org/namespaces/inkscape"
   version="1.1"
   width="12"
   height="13"
   id="svg2"
   inkscape:version="0.48.4 r9939"
   sodipodi:docname="close_unfocused_prelight.svg">
  <sodipodi:namedview
     pagecolor="#ffffff"
     bordercolor="#666666"
     borderopacity="1"
     objecttolerance="10"
     gridtolerance="10"
     guidetolerance="10"
     inkscape:pageopacity="0"
     inkscape:pageshadow="2"
     inkscape:window-width="640"
     inkscape:window-height="480"
     id="namedview14"
     showgrid="false"
     inkscape:zoom="18.153846"
     inkscape:cx="6"
     inkscape:cy="6.5"
     inkscape:window-x="53"
     inkscape:window-y="34"
     inkscape:window-maximized="0"
     inkscape:current-layer="g4090" />
  <defs
     id="defs4" />
  <metadata
     id="metadata7">
    <rdf:RDF>
      <cc:Work
         rdf:about="">
        <dc:format>image/svg+xml</dc:format>
        <dc:type
           rdf:resource="http://purl.org/dc/dcmitype/StillImage" />
        <dc:title />
      </cc:Work>
    </rdf:RDF>
  </metadata>
  <g
     transform="translate(-671.14288,-651.57648)"
     id="layer1">
    <g
       transform="matrix(0.1265625,0,0,-0.1265625,672.07092,663.09636)"
       id="g4090">
      <g
         transform="scale(0.1,0.1)"
         id="g4092">
        <g
           transform="matrix(9.9999999,0,0,9.9999999,3.1284009,-0.36309974)"
           id="g4195">
          <g
             transform="scale(0.1,0.1)"
             id="g4197">
            <path
               d="m 430.199,4.57031 c 236.063,0 427.43,191.36369 427.43,427.42969 0,236.059 -191.367,427.426 -427.43,427.426 C 194.137,859.426 2.76953,668.059 2.76953,432 2.76953,195.934 194.137,4.57031 430.199,4.57031"
               id="path4199"
               style="fill:#b4b4b4;fill-opacity:1;fill-rule:evenodd;stroke:none" />
            <path
               d="m 430.199,40.9219 c 215.985,0 391.078,175.0901 391.078,391.0781 0,215.98 -175.093,391.074 -391.078,391.074 C 214.215,823.074 39.1211,647.98 39.1211,432 39.1211,216.012 214.215,40.9219 430.199,40.9219"
               id="path4201"
               style="fill:#d4d4d4;fill-opacity:1;fill-rule:evenodd;stroke:none" />
            <path
               d="m 233.25581,280.85657 352.88601,352.887 c 13.657,13.65601 36,13.65601 49.664,0 l 0.65264,-0.65975 c 13.66,-13.656 13.66,-36 0.004,-49.66 L 283.57581,230.54058 c -13.66,-13.66001 -36.004,-13.66001 -49.66,0 l -0.65975,0.65185 c -13.657,13.66 -13.657,36.008 0,49.664"
               id="path4098"
               style="fill:#999999;fill-opacity:1;fill-rule:evenodd;stroke:none" />
            <path
               d="m 283.57581,633.74357 c 184.06915,-196.72601 308.42212,-322.36131 352.88301,-352.887 15.92118,-10.93107 13.65599,-36.004 0,-49.65999 l -0.65739,-0.65581 c -13.65999,-13.66 -36.00299,-13.66 -49.65999,0 l -352.88563,352.8828 c -13.661,13.66001 -13.661,36.00401 0,49.664 l 0.6558,0.65581 c 13.66001,13.66 36.004,13.66 49.664,0"
               id="path4100"
               style="fill:#999999;fill-opacity:1;fill-rule:evenodd;stroke:none" />
          </g>
        </g>
      </g>
    </g>
  </g>
</svg>
